<svg width="133" height="97" viewBox="0 0 133 97" fill="none" xmlns="http://www.w3.org/2000/svg">
<g filter="url(#filter0_d_159_29)">
<path d="M58.0547 11.8633C58.0078 12.0273 57.9609 12.2383 57.9141 12.4961C57.8789 12.7422 57.8379 13.0176 57.791 13.3223C58.6465 13.3926 59.5312 13.4863 60.4453 13.6035C61.3711 13.7207 62.2734 13.873 63.1523 14.0605C64.0312 14.2363 64.8691 14.4473 65.666 14.6934C66.4746 14.9277 67.2012 15.1973 67.8457 15.502L67.7051 15.8359C66.416 15.6719 65.127 15.5605 63.8379 15.502C62.5605 15.4316 61.2832 15.3965 60.0059 15.3965C59.5957 15.3965 59.1797 15.4082 58.7578 15.4316C58.3477 15.4551 57.9316 15.4785 57.5098 15.502C57.416 16.3691 57.3223 17.3359 57.2285 18.4023C57.1348 19.457 57.0469 20.5703 56.9648 21.7422C56.8945 22.9141 56.8301 24.127 56.7715 25.3809C56.7246 26.623 56.6895 27.8711 56.666 29.125C56.6426 30.3672 56.6367 31.5918 56.6484 32.7988C56.6719 33.9941 56.7188 35.1367 56.7891 36.2266C56.8594 37.3047 56.959 38.3066 57.0879 39.2324C57.2168 40.1582 57.3809 40.9609 57.5801 41.6406C57.6035 41.7461 57.6328 41.8516 57.668 41.957C57.7148 42.0742 57.7383 42.1855 57.7383 42.291C57.7383 42.4785 57.6914 42.625 57.5977 42.7305C57.5039 42.8477 57.3574 42.9062 57.1582 42.9062C56.9004 42.9062 56.6426 42.8359 56.3848 42.6953C56.1387 42.5547 55.916 42.4199 55.7168 42.291C55.3652 42.0566 55.0957 41.6816 54.9082 41.166C54.7207 40.6504 54.5859 40.0938 54.5039 39.4961C54.4219 38.8984 54.375 38.3125 54.3633 37.7383C54.3516 37.1641 54.3457 36.6895 54.3457 36.3145C54.3457 35.4238 54.3633 34.4395 54.3984 33.3613C54.4453 32.2832 54.5039 31.1523 54.5742 29.9688C54.6562 28.7734 54.7559 27.5488 54.873 26.2949C54.9902 25.0293 55.1309 23.7812 55.2949 22.5508C55.459 21.3086 55.6406 20.0957 55.8398 18.9121C56.0508 17.7285 56.2852 16.6152 56.543 15.5723C55.6758 15.6309 54.8086 15.7129 53.9414 15.8184C53.0859 15.9121 52.248 16.0293 51.4277 16.1699C50.6191 16.3105 49.8398 16.4688 49.0898 16.6445C48.3516 16.8086 47.666 16.9961 47.0332 17.207C46.8926 17.2773 46.7402 17.3125 46.5762 17.3125C46.2363 17.3125 46.0664 17.1426 46.0664 16.8027C46.0664 16.5684 46.1309 16.3281 46.2598 16.082C46.3887 15.8359 46.5176 15.6191 46.6465 15.4316C46.8457 15.1504 47.1445 14.9043 47.543 14.6934C47.9297 14.4707 48.375 14.2773 48.8789 14.1133C49.3945 13.9375 49.9336 13.7969 50.4961 13.6914C51.0703 13.5742 51.627 13.4805 52.166 13.4102C52.7051 13.3281 53.209 13.2754 53.6777 13.252C54.1582 13.2168 54.5508 13.1992 54.8555 13.1992C55.207 13.1992 55.5762 13.2109 55.9629 13.2344C56.3496 13.2461 56.748 13.2637 57.1582 13.2871C57.3457 12.7012 57.5391 12.1797 57.7383 11.7227L58.0547 11.8633Z" fill="#436273"/>
<path d="M67.082 36.0156C67.082 35.8424 67.1139 35.6784 67.1777 35.5234C67.2415 35.3685 67.3281 35.2363 67.4375 35.127C67.556 35.0085 67.6927 34.9173 67.8477 34.8535C68.0026 34.7897 68.1667 34.7578 68.3398 34.7578C68.513 34.7578 68.6771 34.7897 68.832 34.8535C68.987 34.9173 69.1191 35.0085 69.2285 35.127C69.347 35.2363 69.4382 35.3685 69.502 35.5234C69.5658 35.6784 69.5977 35.8424 69.5977 36.0156C69.5977 36.1888 69.5658 36.3529 69.502 36.5078C69.4382 36.6628 69.347 36.7995 69.2285 36.918C69.1191 37.0273 68.987 37.1139 68.832 37.1777C68.6771 37.2415 68.513 37.2734 68.3398 37.2734C68.1667 37.2734 68.0026 37.2415 67.8477 37.1777C67.6927 37.1139 67.556 37.0273 67.4375 36.918C67.3281 36.7995 67.2415 36.6628 67.1777 36.5078C67.1139 36.3529 67.082 36.1888 67.082 36.0156ZM83.0547 35.2773C82.9219 35.5586 82.7578 35.8398 82.5625 36.1211C82.375 36.3945 82.1641 36.6445 81.9297 36.8711C81.6953 37.0898 81.4375 37.2695 81.1562 37.4102C80.875 37.5508 80.5742 37.6211 80.2539 37.6211C79.9023 37.6211 79.5977 37.5273 79.3398 37.3398C79.082 37.1602 78.8633 36.9219 78.6836 36.625C78.5039 36.3203 78.3555 35.9727 78.2383 35.582C78.1211 35.1914 78.0234 34.7891 77.9453 34.375C77.8672 33.9609 77.8008 33.5469 77.7461 33.1328C77.6992 32.7188 77.6523 32.3398 77.6055 31.9961C77.3555 32.3242 77.1289 32.6719 76.9258 33.0391C76.7227 33.4062 76.5273 33.7891 76.3398 34.1875C76.1523 34.5781 75.9688 34.9766 75.7891 35.3828C75.6094 35.7891 75.418 36.1914 75.2148 36.5898C75.168 36.6758 75.1211 36.7695 75.0742 36.8711C75.0273 36.9648 74.9727 37.0508 74.9102 37.1289C74.8477 37.2148 74.7734 37.2852 74.6875 37.3398C74.6016 37.3945 74.5 37.4219 74.3828 37.4219C74.2734 37.4219 74.1797 37.4023 74.1016 37.3633C74.0312 37.3242 73.9688 37.2734 73.9141 37.2109C73.8672 37.1562 73.8281 37.0938 73.7969 37.0234C73.7734 36.9531 73.7539 36.8867 73.7383 36.8242C73.6445 36.4883 73.5586 36.0664 73.4805 35.5586C73.4102 35.0508 73.3477 34.5078 73.293 33.9297C73.2383 33.3516 73.1953 32.7656 73.1641 32.1719C73.1406 31.5703 73.1289 31.0156 73.1289 30.5078C73.1289 29.7812 73.1758 29.0352 73.2695 28.2695C73.3633 27.4961 73.5078 26.7422 73.7031 26.0078C73.9062 25.2734 74.1602 24.582 74.4648 23.9336C74.7773 23.2773 75.1445 22.7031 75.5664 22.2109C75.9883 21.7188 76.4688 21.3281 77.0078 21.0391C77.5547 20.75 78.1641 20.6055 78.8359 20.6055C79.2812 20.6055 79.6328 20.7383 79.8906 21.0039C80.1484 21.2617 80.2773 21.6328 80.2773 22.1172C80.2773 22.8438 80.1484 23.543 79.8906 24.2148C79.6406 24.8789 79.3164 25.5156 78.918 26.125C78.5273 26.7344 78.0898 27.3125 77.6055 27.8594C77.1289 28.3984 76.668 28.8984 76.2227 29.3594L76.0703 29.2422C76.2656 29.0234 76.4727 28.7539 76.6914 28.4336C76.918 28.1055 77.1367 27.7539 77.3477 27.3789C77.5664 26.9961 77.7734 26.5977 77.9688 26.1836C78.1641 25.7617 78.3359 25.3477 78.4844 24.9414C78.6328 24.5352 78.75 24.1445 78.8359 23.7695C78.9219 23.3867 78.9648 23.0391 78.9648 22.7266C78.9648 22.5625 78.9492 22.4062 78.918 22.2578C78.8867 22.1094 78.832 21.9805 78.7539 21.8711C78.6758 21.7539 78.5742 21.6641 78.4492 21.6016C78.332 21.5312 78.1875 21.4961 78.0156 21.4961C77.6719 21.4961 77.3477 21.6289 77.043 21.8945C76.7461 22.1602 76.4727 22.5195 76.2227 22.9727C75.9727 23.418 75.75 23.9375 75.5547 24.5312C75.3672 25.125 75.2031 25.7461 75.0625 26.3945C74.9297 27.043 74.8281 27.6992 74.7578 28.3633C74.6875 29.0273 74.6523 29.6602 74.6523 30.2617C74.6523 30.668 74.6523 31.0781 74.6523 31.4922C74.6523 31.9062 74.6602 32.3398 74.6758 32.793C74.6992 33.2461 74.7344 33.7266 74.7812 34.2344C74.8359 34.7422 74.9102 35.293 75.0039 35.8867C75.3477 34.9961 75.7109 34.125 76.0938 33.2734C76.4766 32.4141 76.8906 31.6289 77.3359 30.918C77.3984 30.8164 77.4609 30.7148 77.5234 30.6133C77.5938 30.5117 77.668 30.4219 77.7461 30.3438C77.8242 30.2578 77.9102 30.1875 78.0039 30.1328C78.0977 30.0781 78.1992 30.0508 78.3086 30.0508C78.4414 30.0508 78.5469 30.0898 78.625 30.168C78.7031 30.2383 78.7656 30.3281 78.8125 30.4375C78.8594 30.5469 78.8906 30.6641 78.9062 30.7891C78.9297 30.9141 78.9492 31.0273 78.9648 31.1289C78.9961 31.3555 79.0312 31.6484 79.0703 32.0078C79.1094 32.3672 79.1562 32.7539 79.2109 33.168C79.2656 33.5742 79.332 33.9844 79.4102 34.3984C79.4961 34.8125 79.6016 35.1875 79.7266 35.5234C79.8594 35.8516 80.0156 36.1211 80.1953 36.332C80.375 36.543 80.5898 36.6484 80.8398 36.6484C81.043 36.6484 81.2461 36.6055 81.4492 36.5195C81.6523 36.4336 81.8477 36.3242 82.0352 36.1914C82.2227 36.0586 82.3945 35.9062 82.5508 35.7344C82.7148 35.5625 82.8516 35.3945 82.9609 35.2305L83.0547 35.2773ZM87.8945 30.8594C87.8945 30.9453 87.8633 31.0234 87.8008 31.0938C87.7383 31.1562 87.6641 31.1875 87.5781 31.1875C87.5078 31.1875 87.4336 31.168 87.3555 31.1289C87.2773 31.082 87.1875 31.0312 87.0859 30.9766C86.9922 30.9219 86.8789 30.875 86.7461 30.8359C86.6211 30.7891 86.4766 30.7656 86.3125 30.7656C85.9297 30.7656 85.5859 30.8867 85.2812 31.1289C84.9844 31.3633 84.7305 31.6562 84.5195 32.0078C84.3164 32.3594 84.1602 32.7344 84.0508 33.1328C83.9414 33.5312 83.8867 33.8906 83.8867 34.2109C83.8867 34.4375 83.9062 34.6602 83.9453 34.8789C83.9844 35.0898 84.0508 35.2852 84.1445 35.4648C84.2461 35.6367 84.3828 35.7773 84.5547 35.8867C84.7266 35.9883 84.9453 36.0391 85.2109 36.0391C85.4922 36.0391 85.7617 35.9883 86.0195 35.8867C86.2773 35.7773 86.5195 35.6367 86.7461 35.4648C86.7539 35.2148 86.793 34.9531 86.8633 34.6797C86.9414 34.3984 87.0391 34.125 87.1562 33.8594C87.2734 33.5859 87.4062 33.3281 87.5547 33.0859C87.7109 32.8438 87.8711 32.6289 88.0352 32.4414L88.1875 32.5352C88.1016 32.8008 88.0391 33.0742 88 33.3555C87.9609 33.6367 87.9414 33.9141 87.9414 34.1875C87.9414 34.4688 87.9648 34.7344 88.0117 34.9844C88.0586 35.2344 88.1406 35.4531 88.2578 35.6406C88.375 35.8203 88.5352 35.9648 88.7383 36.0742C88.9414 36.1758 89.2031 36.2266 89.5234 36.2266C89.9141 36.2266 90.2734 36.1367 90.6016 35.957C90.9297 35.7773 91.2188 35.5508 91.4688 35.2773L91.5625 35.3242C91.4219 35.5977 91.2383 35.8594 91.0117 36.1094C90.7852 36.3594 90.5312 36.5859 90.25 36.7891C89.9766 36.9844 89.6836 37.1406 89.3711 37.2578C89.0586 37.375 88.75 37.4336 88.4453 37.4336C88.0156 37.4336 87.6641 37.3086 87.3906 37.0586C87.1172 36.8164 86.9297 36.5078 86.8281 36.1328C86.5 36.4609 86.1328 36.7383 85.7266 36.9648C85.3281 37.1836 84.9062 37.293 84.4609 37.293C84.1328 37.293 83.8398 37.2305 83.582 37.1055C83.332 36.9883 83.1211 36.8281 82.9492 36.625C82.7773 36.4219 82.6445 36.1836 82.5508 35.9102C82.4648 35.6289 82.4219 35.3359 82.4219 35.0312C82.4219 34.6797 82.4766 34.3203 82.5859 33.9531C82.7031 33.5781 82.8594 33.2109 83.0547 32.8516C83.2578 32.4922 83.4961 32.1523 83.7695 31.832C84.043 31.5117 84.3398 31.2305 84.6602 30.9883C84.9883 30.7461 85.332 30.5547 85.6914 30.4141C86.0508 30.2734 86.418 30.2031 86.793 30.2031C86.8789 30.2031 86.9844 30.2148 87.1094 30.2383C87.2344 30.2539 87.3555 30.2852 87.4727 30.332C87.5898 30.3789 87.6875 30.4453 87.7656 30.5312C87.8516 30.6172 87.8945 30.7266 87.8945 30.8594ZM93.7305 27.543C93.7305 27.6992 93.6953 27.8555 93.625 28.0117C93.5547 28.168 93.4609 28.3086 93.3438 28.4336C93.2344 28.5508 93.1055 28.6484 92.957 28.7266C92.8086 28.8047 92.6562 28.8438 92.5 28.8438C92.2969 28.8438 92.1328 28.7773 92.0078 28.6445C91.8906 28.5117 91.832 28.3438 91.832 28.1406C91.832 27.9844 91.8672 27.832 91.9375 27.6836C92.0078 27.5273 92.0977 27.3906 92.207 27.2734C92.3242 27.1562 92.4531 27.0625 92.5938 26.9922C92.7422 26.9141 92.8945 26.875 93.0508 26.875C93.2539 26.875 93.418 26.9375 93.543 27.0625C93.668 27.1875 93.7305 27.3477 93.7305 27.543ZM97.0117 35.3242C96.832 35.6211 96.6172 35.8945 96.3672 36.1445C96.125 36.3867 95.8555 36.6016 95.5586 36.7891C95.2695 36.9688 94.957 37.1094 94.6211 37.2109C94.293 37.3125 93.9531 37.3633 93.6016 37.3633C93.1641 37.3633 92.7734 37.2891 92.4297 37.1406C92.0938 36.9922 91.8086 36.7891 91.5742 36.5312C91.3477 36.2656 91.1719 35.957 91.0469 35.6055C90.9297 35.2461 90.8711 34.8555 90.8711 34.4336C90.8711 33.9805 90.9375 33.5508 91.0703 33.1445C91.2031 32.7383 91.3867 32.3594 91.6211 32.0078C91.8555 31.6484 92.1289 31.3203 92.4414 31.0234C92.7617 30.7266 93.1016 30.4609 93.4609 30.2266L93.6016 30.332C93.2188 30.7852 92.9062 31.293 92.6641 31.8555C92.4297 32.418 92.3125 33.0039 92.3125 33.6133C92.3125 33.9648 92.3516 34.3047 92.4297 34.6328C92.5156 34.9531 92.6445 35.2383 92.8164 35.4883C92.9961 35.7383 93.2227 35.9375 93.4961 36.0859C93.7695 36.2344 94.1016 36.3086 94.4922 36.3086C94.9531 36.3086 95.3906 36.2109 95.8047 36.0156C96.2266 35.8203 96.6055 35.5742 96.9414 35.2773L97.0117 35.3242Z" fill="#399FD6"/>
<path d="M66.0547 46.8633C66.0078 47.0273 65.9609 47.2383 65.9141 47.4961C65.8789 47.7422 65.8379 48.0176 65.791 48.3223C66.6465 48.3926 67.5312 48.4863 68.4453 48.6035C69.3711 48.7207 70.2734 48.873 71.1523 49.0605C72.0312 49.2363 72.8691 49.4473 73.666 49.6934C74.4746 49.9277 75.2012 50.1973 75.8457 50.502L75.7051 50.8359C74.416 50.6719 73.127 50.5605 71.8379 50.502C70.5605 50.4316 69.2832 50.3965 68.0059 50.3965C67.5957 50.3965 67.1797 50.4082 66.7578 50.4316C66.3477 50.4551 65.9316 50.4785 65.5098 50.502C65.416 51.3691 65.3223 52.3359 65.2285 53.4023C65.1348 54.457 65.0469 55.5703 64.9648 56.7422C64.8945 57.9141 64.8301 59.127 64.7715 60.3809C64.7246 61.623 64.6895 62.8711 64.666 64.125C64.6426 65.3672 64.6367 66.5918 64.6484 67.7988C64.6719 68.9941 64.7188 70.1367 64.7891 71.2266C64.8594 72.3047 64.959 73.3066 65.0879 74.2324C65.2168 75.1582 65.3809 75.9609 65.5801 76.6406C65.6035 76.7461 65.6328 76.8516 65.668 76.957C65.7148 77.0742 65.7383 77.1855 65.7383 77.291C65.7383 77.4785 65.6914 77.625 65.5977 77.7305C65.5039 77.8477 65.3574 77.9062 65.1582 77.9062C64.9004 77.9062 64.6426 77.8359 64.3848 77.6953C64.1387 77.5547 63.916 77.4199 63.7168 77.291C63.3652 77.0566 63.0957 76.6816 62.9082 76.166C62.7207 75.6504 62.5859 75.0938 62.5039 74.4961C62.4219 73.8984 62.375 73.3125 62.3633 72.7383C62.3516 72.1641 62.3457 71.6895 62.3457 71.3145C62.3457 70.4238 62.3633 69.4395 62.3984 68.3613C62.4453 67.2832 62.5039 66.1523 62.5742 64.9688C62.6562 63.7734 62.7559 62.5488 62.873 61.2949C62.9902 60.0293 63.1309 58.7812 63.2949 57.5508C63.459 56.3086 63.6406 55.0957 63.8398 53.9121C64.0508 52.7285 64.2852 51.6152 64.543 50.5723C63.6758 50.6309 62.8086 50.7129 61.9414 50.8184C61.0859 50.9121 60.248 51.0293 59.4277 51.1699C58.6191 51.3105 57.8398 51.4688 57.0898 51.6445C56.3516 51.8086 55.666 51.9961 55.0332 52.207C54.8926 52.2773 54.7402 52.3125 54.5762 52.3125C54.2363 52.3125 54.0664 52.1426 54.0664 51.8027C54.0664 51.5684 54.1309 51.3281 54.2598 51.082C54.3887 50.8359 54.5176 50.6191 54.6465 50.4316C54.8457 50.1504 55.1445 49.9043 55.543 49.6934C55.9297 49.4707 56.375 49.2773 56.8789 49.1133C57.3945 48.9375 57.9336 48.7969 58.4961 48.6914C59.0703 48.5742 59.627 48.4805 60.166 48.4102C60.7051 48.3281 61.209 48.2754 61.6777 48.252C62.1582 48.2168 62.5508 48.1992 62.8555 48.1992C63.207 48.1992 63.5762 48.2109 63.9629 48.2344C64.3496 48.2461 64.748 48.2637 65.1582 48.2871C65.3457 47.7012 65.5391 47.1797 65.7383 46.7227L66.0547 46.8633Z" fill="#436273"/>
<path d="M74.6914 71.1562C74.6914 71.0078 74.7188 70.8672 74.7734 70.7344C74.8281 70.6016 74.9023 70.4883 74.9961 70.3945C75.0977 70.293 75.2148 70.2148 75.3477 70.1602C75.4805 70.1055 75.6211 70.0781 75.7695 70.0781C75.918 70.0781 76.0586 70.1055 76.1914 70.1602C76.3242 70.2148 76.4375 70.293 76.5312 70.3945C76.6328 70.4883 76.7109 70.6016 76.7656 70.7344C76.8203 70.8672 76.8477 71.0078 76.8477 71.1562C76.8477 71.3047 76.8203 71.4453 76.7656 71.5781C76.7109 71.7109 76.6328 71.8281 76.5312 71.9297C76.4375 72.0234 76.3242 72.0977 76.1914 72.1523C76.0586 72.207 75.918 72.2344 75.7695 72.2344C75.6211 72.2344 75.4805 72.207 75.3477 72.1523C75.2148 72.0977 75.0977 72.0234 74.9961 71.9297C74.9023 71.8281 74.8281 71.7109 74.7734 71.5781C74.7188 71.4453 74.6914 71.3047 74.6914 71.1562ZM88.8008 70.3242C88.6602 70.6367 88.4805 70.918 88.2617 71.168C88.0508 71.418 87.8203 71.6328 87.5703 71.8125C87.3203 71.9844 87.0625 72.1172 86.7969 72.2109C86.5312 72.3125 86.2773 72.3633 86.0352 72.3633C85.582 72.3633 85.1992 72.2852 84.8867 72.1289C84.5742 71.9727 84.3203 71.7617 84.125 71.4961C83.9297 71.2305 83.7891 70.918 83.7031 70.5586C83.6172 70.1992 83.5742 69.8164 83.5742 69.4102C83.5742 69.0977 83.5977 68.7734 83.6445 68.4375C83.6914 68.1016 83.7578 67.7773 83.8438 67.4648C83.8594 67.418 83.875 67.3633 83.8906 67.3008C83.9062 67.2305 83.9141 67.1719 83.9141 67.125C83.9141 67.0859 83.8906 67.0547 83.8438 67.0312C83.7109 66.9844 83.5703 66.9414 83.4219 66.9023C83.2734 66.8555 83.125 66.8047 82.9766 66.75C82.8359 66.6953 82.6992 66.6328 82.5664 66.5625C82.4414 66.4922 82.332 66.4023 82.2383 66.293C82.2305 66.7617 82.1523 67.2383 82.0039 67.7227C81.8555 68.1992 81.6562 68.6602 81.4062 69.1055C81.1641 69.543 80.8789 69.9531 80.5508 70.3359C80.2227 70.7188 79.875 71.0508 79.5078 71.332L79.3906 71.2148C79.6172 70.9648 79.8242 70.668 80.0117 70.3242C80.1992 69.9805 80.3594 69.6211 80.4922 69.2461C80.625 68.8711 80.7266 68.4922 80.7969 68.1094C80.875 67.7266 80.9141 67.3672 80.9141 67.0312C80.9141 66.8594 80.8984 66.6992 80.8672 66.5508C80.8359 66.3945 80.8008 66.2461 80.7617 66.1055C80.7305 65.9648 80.6992 65.832 80.668 65.707C80.6367 65.5742 80.6211 65.4414 80.6211 65.3086C80.6211 65.0898 80.6914 64.918 80.832 64.793C80.9727 64.668 81.1523 64.6055 81.3711 64.6055C81.4883 64.6055 81.5781 64.6406 81.6406 64.7109C81.7031 64.7734 81.7578 64.8516 81.8047 64.9453C81.8516 65.0391 81.9062 65.1367 81.9688 65.2383C82.0312 65.3398 82.1211 65.4258 82.2383 65.4961C82.3867 65.582 82.5742 65.6445 82.8008 65.6836C83.0273 65.7227 83.2656 65.7578 83.5156 65.7891C83.7656 65.8203 84.0156 65.8516 84.2656 65.8828C84.5156 65.9141 84.7383 65.9688 84.9336 66.0469C85.1367 66.1172 85.3008 66.2188 85.4258 66.3516C85.5508 66.4766 85.6133 66.6484 85.6133 66.8672C85.6133 66.9766 85.6016 67.0859 85.5781 67.1953C85.5625 67.2969 85.5352 67.3945 85.4961 67.4883C85.4023 67.8164 85.3203 68.1523 85.25 68.4961C85.1875 68.832 85.1562 69.168 85.1562 69.5039C85.1562 69.793 85.1758 70.0586 85.2148 70.3008C85.2617 70.5352 85.3438 70.7383 85.4609 70.9102C85.5781 71.082 85.7344 71.2148 85.9297 71.3086C86.125 71.4023 86.375 71.4492 86.6797 71.4492C87.1172 71.4492 87.5 71.3438 87.8281 71.1328C88.1562 70.9141 88.4453 70.6289 88.6953 70.2773L88.8008 70.3242ZM93.5117 65.8594C93.5117 65.9453 93.4805 66.0234 93.418 66.0938C93.3555 66.1562 93.2812 66.1875 93.1953 66.1875C93.125 66.1875 93.0508 66.168 92.9727 66.1289C92.8945 66.082 92.8047 66.0312 92.7031 65.9766C92.6094 65.9219 92.4961 65.875 92.3633 65.8359C92.2383 65.7891 92.0938 65.7656 91.9297 65.7656C91.5469 65.7656 91.2031 65.8867 90.8984 66.1289C90.6016 66.3633 90.3477 66.6562 90.1367 67.0078C89.9336 67.3594 89.7773 67.7344 89.668 68.1328C89.5586 68.5312 89.5039 68.8906 89.5039 69.2109C89.5039 69.4375 89.5234 69.6602 89.5625 69.8789C89.6016 70.0898 89.668 70.2852 89.7617 70.4648C89.8633 70.6367 90 70.7773 90.1719 70.8867C90.3438 70.9883 90.5625 71.0391 90.8281 71.0391C91.1094 71.0391 91.3789 70.9883 91.6367 70.8867C91.8945 70.7773 92.1367 70.6367 92.3633 70.4648C92.3711 70.2148 92.4102 69.9531 92.4805 69.6797C92.5586 69.3984 92.6562 69.125 92.7734 68.8594C92.8906 68.5859 93.0234 68.3281 93.1719 68.0859C93.3281 67.8438 93.4883 67.6289 93.6523 67.4414L93.8047 67.5352C93.7188 67.8008 93.6562 68.0742 93.6172 68.3555C93.5781 68.6367 93.5586 68.9141 93.5586 69.1875C93.5586 69.4688 93.582 69.7344 93.6289 69.9844C93.6758 70.2344 93.7578 70.4531 93.875 70.6406C93.9922 70.8203 94.1523 70.9648 94.3555 71.0742C94.5586 71.1758 94.8203 71.2266 95.1406 71.2266C95.5312 71.2266 95.8906 71.1367 96.2188 70.957C96.5469 70.7773 96.8359 70.5508 97.0859 70.2773L97.1797 70.3242C97.0391 70.5977 96.8555 70.8594 96.6289 71.1094C96.4023 71.3594 96.1484 71.5859 95.8672 71.7891C95.5938 71.9844 95.3008 72.1406 94.9883 72.2578C94.6758 72.375 94.3672 72.4336 94.0625 72.4336C93.6328 72.4336 93.2812 72.3086 93.0078 72.0586C92.7344 71.8164 92.5469 71.5078 92.4453 71.1328C92.1172 71.4609 91.75 71.7383 91.3438 71.9648C90.9453 72.1836 90.5234 72.293 90.0781 72.293C89.75 72.293 89.457 72.2305 89.1992 72.1055C88.9492 71.9883 88.7383 71.8281 88.5664 71.625C88.3945 71.4219 88.2617 71.1836 88.168 70.9102C88.082 70.6289 88.0391 70.3359 88.0391 70.0312C88.0391 69.6797 88.0938 69.3203 88.2031 68.9531C88.3203 68.5781 88.4766 68.2109 88.6719 67.8516C88.875 67.4922 89.1133 67.1523 89.3867 66.832C89.6602 66.5117 89.957 66.2305 90.2773 65.9883C90.6055 65.7461 90.9492 65.5547 91.3086 65.4141C91.668 65.2734 92.0352 65.2031 92.4102 65.2031C92.4961 65.2031 92.6016 65.2148 92.7266 65.2383C92.8516 65.2539 92.9727 65.2852 93.0898 65.332C93.207 65.3789 93.3047 65.4453 93.3828 65.5312C93.4688 65.6172 93.5117 65.7266 93.5117 65.8594ZM103.66 65.0625C103.66 65.4609 103.609 65.918 103.508 66.4336C103.414 66.9492 103.277 67.4805 103.098 68.0273C102.918 68.5742 102.703 69.1133 102.453 69.6445C102.211 70.168 101.938 70.6367 101.633 71.0508C101.336 71.4648 101.016 71.7969 100.672 72.0469C100.328 72.3047 99.9727 72.4336 99.6055 72.4336C99.3789 72.4336 99.168 72.3281 98.9727 72.1172C98.7773 71.9062 98.6016 71.6562 98.4453 71.3672C98.2969 71.0781 98.168 70.7852 98.0586 70.4883C97.9492 70.1914 97.8633 69.9609 97.8008 69.7969C97.6367 69.3281 97.4922 68.8594 97.3672 68.3906C97.2422 67.9219 97.125 67.4453 97.0156 66.9609C97.0078 66.9297 96.9961 66.8711 96.9805 66.7852C96.9648 66.6914 96.9414 66.5977 96.9102 66.5039C96.8867 66.4102 96.8555 66.3281 96.8164 66.2578C96.7852 66.1797 96.7539 66.1406 96.7227 66.1406C96.6523 66.1406 96.5703 66.1523 96.4766 66.1758C96.3906 66.1992 96.3047 66.2305 96.2188 66.2695C96.1328 66.3008 96.0469 66.3359 95.9609 66.375C95.8828 66.4141 95.8164 66.4492 95.7617 66.4805L95.668 66.3633C95.7617 66.2695 95.8906 66.1602 96.0547 66.0352C96.2188 65.9102 96.3906 65.7969 96.5703 65.6953C96.75 65.5859 96.9336 65.4961 97.1211 65.4258C97.3086 65.3477 97.4727 65.3086 97.6133 65.3086C97.8008 65.3086 97.957 65.3906 98.082 65.5547C98.2148 65.7109 98.3281 65.9258 98.4219 66.1992C98.5234 66.4648 98.6133 66.7812 98.6914 67.1484C98.7773 67.5156 98.8672 67.9023 98.9609 68.3086C98.9766 68.3711 99.0078 68.4961 99.0547 68.6836C99.1016 68.8711 99.1602 69.0898 99.2305 69.3398C99.3008 69.582 99.375 69.8398 99.4531 70.1133C99.5391 70.3867 99.625 70.6367 99.7109 70.8633C99.8047 71.082 99.8945 71.2656 99.9805 71.4141C100.066 71.5625 100.148 71.6367 100.227 71.6367C100.445 71.6367 100.648 71.5586 100.836 71.4023C101.031 71.2383 101.211 71.0234 101.375 70.7578C101.547 70.4922 101.699 70.1953 101.832 69.8672C101.965 69.5312 102.078 69.1914 102.172 68.8477C102.266 68.5039 102.336 68.1719 102.383 67.8516C102.438 67.5312 102.465 67.25 102.465 67.0078C102.465 66.5547 102.418 66.1055 102.324 65.6602C102.23 65.207 102.082 64.8086 101.879 64.4648C101.684 64.1133 101.43 63.8398 101.117 63.6445C100.812 63.4492 100.449 63.3828 100.027 63.4453L99.9922 63.3398C100.234 63.2383 100.48 63.1602 100.73 63.1055C100.98 63.0508 101.23 63.0234 101.48 63.0234C102.152 63.0234 102.684 63.1914 103.074 63.5273C103.465 63.8633 103.66 64.375 103.66 65.0625ZM111.957 70.3242C111.754 70.6211 111.508 70.8984 111.219 71.1562C110.938 71.4141 110.625 71.6367 110.281 71.8242C109.945 72.0117 109.59 72.1602 109.215 72.2695C108.848 72.3789 108.477 72.4336 108.102 72.4336C107.57 72.4336 107.074 72.3633 106.613 72.2227C106.152 72.0898 105.75 71.8828 105.406 71.6016C105.062 71.3203 104.793 70.9688 104.598 70.5469C104.402 70.1172 104.305 69.6172 104.305 69.0469C104.305 68.4844 104.406 67.9609 104.609 67.4766C104.82 66.9844 105.105 66.5586 105.465 66.1992C105.832 65.832 106.262 65.543 106.754 65.332C107.246 65.1211 107.773 65.0156 108.336 65.0156C108.602 65.0156 108.848 65.0547 109.074 65.1328C109.309 65.2031 109.512 65.3125 109.684 65.4609C109.855 65.6016 109.988 65.7773 110.082 65.9883C110.184 66.1992 110.234 66.4414 110.234 66.7148C110.234 67.043 110.168 67.332 110.035 67.582C109.902 67.832 109.727 68.0508 109.508 68.2383C109.289 68.4258 109.039 68.582 108.758 68.707C108.484 68.832 108.195 68.9336 107.891 69.0117C107.594 69.0898 107.297 69.1484 107 69.1875C106.711 69.2188 106.445 69.2344 106.203 69.2344H105.922C106.023 69.9453 106.305 70.4883 106.766 70.8633C107.227 71.2383 107.863 71.4258 108.676 71.4258C109.254 71.4258 109.816 71.3242 110.363 71.1211C110.918 70.918 111.418 70.6367 111.863 70.2773L111.957 70.3242ZM105.887 68.8828H106.18C106.461 68.8828 106.75 68.8398 107.047 68.7539C107.344 68.6602 107.609 68.5273 107.844 68.3555C108.086 68.1758 108.285 67.957 108.441 67.6992C108.598 67.4414 108.676 67.1484 108.676 66.8203C108.676 66.5 108.605 66.2344 108.465 66.0234C108.332 65.8125 108.098 65.707 107.762 65.707C107.418 65.707 107.125 65.8125 106.883 66.0234C106.648 66.2266 106.457 66.4805 106.309 66.7852C106.16 67.082 106.051 67.3984 105.98 67.7344C105.918 68.0625 105.887 68.3555 105.887 68.6133V68.8828ZM117.711 70.7109C117.461 71.2266 117.109 71.6367 116.656 71.9414C116.203 72.2383 115.688 72.3867 115.109 72.3867C114.633 72.3867 114.207 72.2422 113.832 71.9531C113.457 71.6641 113.125 71.2852 112.836 70.8164C112.555 70.3477 112.312 69.8203 112.109 69.2344C111.914 68.6406 111.75 68.0391 111.617 67.4297C111.492 66.8203 111.398 66.2344 111.336 65.6719C111.281 65.1016 111.254 64.6055 111.254 64.1836C111.254 63.668 111.281 63.1016 111.336 62.4844C111.391 61.8672 111.48 61.2461 111.605 60.6211C111.73 59.9883 111.891 59.375 112.086 58.7812C112.289 58.1875 112.531 57.6641 112.812 57.2109C113.102 56.75 113.434 56.3828 113.809 56.1094C114.184 55.8281 114.613 55.6875 115.098 55.6875C115.512 55.6875 115.848 55.8086 116.105 56.0508C116.363 56.293 116.566 56.5938 116.715 56.9531C116.863 57.3047 116.961 57.6797 117.008 58.0781C117.062 58.4766 117.09 58.832 117.09 59.1445C117.09 59.9883 116.988 60.8203 116.785 61.6406C116.59 62.4531 116.316 63.2227 115.965 63.9492C115.621 64.668 115.215 65.3242 114.746 65.918C114.277 66.5039 113.773 66.9961 113.234 67.3945C113.344 67.918 113.473 68.4297 113.621 68.9297C113.777 69.4219 113.965 69.8633 114.184 70.2539C114.402 70.6367 114.652 70.9492 114.934 71.1914C115.223 71.4258 115.551 71.543 115.918 71.543C116.285 71.543 116.602 71.4688 116.867 71.3203C117.133 71.1719 117.379 70.9531 117.605 70.6641L117.711 70.7109ZM112.883 63.4805C112.875 63.6523 112.871 63.8633 112.871 64.1133C112.879 64.3633 112.891 64.6406 112.906 64.9453C112.93 65.2422 112.961 65.5625 113 65.9062C113.039 66.25 113.09 66.6016 113.152 66.9609C113.676 66.4922 114.121 65.9727 114.488 65.4023C114.855 64.832 115.156 64.2188 115.391 63.5625C115.625 62.8984 115.793 62.2031 115.895 61.4766C116.004 60.7422 116.059 59.9805 116.059 59.1914C116.059 59.0898 116.055 58.957 116.047 58.793C116.047 58.6289 116.035 58.4531 116.012 58.2656C115.988 58.0781 115.953 57.8906 115.906 57.7031C115.867 57.5156 115.809 57.3477 115.73 57.1992C115.66 57.043 115.566 56.918 115.449 56.8242C115.34 56.7227 115.207 56.6719 115.051 56.6719C114.754 56.6719 114.492 56.8203 114.266 57.1172C114.047 57.4062 113.855 57.7773 113.691 58.2305C113.535 58.6836 113.402 59.1836 113.293 59.7305C113.191 60.2773 113.109 60.8047 113.047 61.3125C112.984 61.8125 112.941 62.2617 112.918 62.6602C112.895 63.0586 112.883 63.332 112.883 63.4805Z" fill="#399FD6"/>
<path d="M24.0704 72.575C23.8589 72.9312 23.9762 73.3914 24.3324 73.6028C24.6886 73.8143 25.1487 73.697 25.3602 73.3408L24.0704 72.575ZM110.367 61.4673C101.997 50.478 93.018 44.5763 84.0663 42.2259C75.1194 39.8768 66.2817 41.0964 58.2272 44.2038C42.1548 50.4044 29.0582 64.1737 24.0704 72.575L25.3602 73.3408C30.2061 65.1785 43.0593 51.6632 58.7671 45.6033C66.6027 42.5804 75.1127 41.4258 83.6853 43.6767C92.2531 45.9263 100.965 51.5988 109.173 62.3761L110.367 61.4673Z" fill="#5A707C"/>
<path d="M31.9531 65.8047L37.5781 65.1406L32.1094 67.1328" fill="#FFCE31"/>
<path d="M32.3438 65.5703C32.3438 65.5703 30.3125 65.4922 28.7109 66.8203V68.5C28.7109 68.5 30.7422 68.5 32.3438 67.25C32.5391 67.0938 32.7344 66.8594 32.7344 66.4297C32.7344 65.9609 32.5781 65.5703 32.3438 65.5703" fill="#B2C1C0"/>
<path d="M18.6328 65.8047L21.8359 72.1719L26.9531 70.5313L20.2344 65.3359L18.6328 65.8047Z" fill="#42ADE2"/>
<path d="M20.2344 62.875V65.3359L18.6328 65.8047L19.4531 63.3828L20.2344 62.875Z" fill="#428BC1"/>
<path d="M28.7109 68.7344C28.9267 68.7344 29.1016 68.2972 29.1016 67.7578C29.1016 67.2185 28.9267 66.7812 28.7109 66.7812C28.4952 66.7812 28.3203 67.2185 28.3203 67.7578C28.3203 68.2972 28.4952 68.7344 28.7109 68.7344Z" fill="#3E4347"/>
<path d="M34.7656 62.875L32.539 66.7031C32.539 66.7031 23.4375 69.2422 20.2344 70.3359C17.0312 71.4688 18.125 72.5625 15.8203 74.8281C13.164 77.3672 16.875 77.5234 29.0625 72.6406C30.1562 72.2109 30.7031 70.4141 32.4609 69.2813C34.3359 68.0703 35.9765 67.5625 35.9765 67.5625L37.1875 61.9375L34.7656 62.875Z" fill="#DAE3EA"/>
<path d="M35.1562 59.9453L33.5547 60.4531L34.7656 62.9922L38.3594 63.8516L40 62.7188L37.1875 61.8984L35.1562 59.9453ZM23.3203 74.1641L38.3984 77.0547L40 75.9219L29.5313 71.4297L23.3203 74.1641Z" fill="#42ADE2"/>
<path d="M40 73.1484V75.9219L38.3984 77.0547L39.2187 73.6562L40 73.1484Z" fill="#428BC1"/>
<path d="M18.2031 71.5078C17.7344 71.9766 17.5 72.5234 17.1094 73.1875C17.4609 73.6172 18.0078 73.8516 18.6328 73.8516C19.7656 73.8516 20.6641 72.9922 20.6641 71.8984H19.4531C18.9453 71.9375 18.5156 71.7422 18.2031 71.5078Z" fill="#3E4347"/>
<path d="M19.0625 75.2578L18.6719 75.3359C18.4375 72.7969 19.1016 71.4688 19.1406 71.4297L19.4531 71.8203L19.2969 71.625L19.4531 71.8203C19.4141 71.8203 18.8281 72.9922 19.0625 75.2578Z" fill="#DAE3EA"/>
<path d="M23.4766 72.6797C23.6923 72.6797 23.8672 72.3474 23.8672 71.9375C23.8672 71.5276 23.6923 71.1953 23.4766 71.1953C23.2608 71.1953 23.0859 71.5276 23.0859 71.9375C23.0859 72.3474 23.2608 72.6797 23.4766 72.6797Z" fill="#3E4347"/>
<path d="M25.0781 72.1719C25.2939 72.1719 25.4688 71.8396 25.4688 71.4297C25.4688 71.0198 25.2939 70.6875 25.0781 70.6875C24.8624 70.6875 24.6875 71.0198 24.6875 71.4297C24.6875 71.8396 24.8624 72.1719 25.0781 72.1719Z" fill="#3E4347"/>
<path d="M26.6797 71.6641C26.8954 71.6641 27.0703 71.3318 27.0703 70.9219C27.0703 70.512 26.8954 70.1797 26.6797 70.1797C26.464 70.1797 26.2891 70.512 26.2891 70.9219C26.2891 71.3318 26.464 71.6641 26.6797 71.6641Z" fill="#3E4347"/>
<path d="M35.1562 67.7187L40 66.4297L35.3516 69.0469" fill="#FFCE31"/>
<path d="M35.1562 67.5234C35.1562 67.5234 33.125 67.4063 31.5234 68.9688V70.9219C31.5234 70.9219 33.5547 70.9219 35.1562 69.4766C35.3516 69.3203 35.5469 69.0469 35.5469 68.5C35.5469 67.9531 35.3906 67.5234 35.1562 67.5234" fill="#B2C1C0"/>
<path d="M31.5234 70.9609C31.7392 70.9609 31.9141 70.5237 31.9141 69.9844C31.9141 69.445 31.7392 69.0078 31.5234 69.0078C31.3077 69.0078 31.1328 69.445 31.1328 69.9844C31.1328 70.5237 31.3077 70.9609 31.5234 70.9609Z" fill="#3E4347"/>
</g>
<defs>
<filter id="filter0_d_159_29" x="0.00741577" y="0.722656" width="132.704" height="96.1836" filterUnits="userSpaceOnUse" color-interpolation-filters="sRGB">
<feFlood flood-opacity="0" result="BackgroundImageFix"/>
<feColorMatrix in="SourceAlpha" type="matrix" values="0 0 0 0 0 0 0 0 0 0 0 0 0 0 0 0 0 0 127 0" result="hardAlpha"/>
<feOffset dy="4"/>
<feGaussianBlur stdDeviation="7.5"/>
<feComposite in2="hardAlpha" operator="out"/>
<feColorMatrix type="matrix" values="0 0 0 0 0 0 0 0 0 0 0 0 0 0 0 0 0 0 0.25 0"/>
<feBlend mode="normal" in2="BackgroundImageFix" result="effect1_dropShadow_159_29"/>
<feBlend mode="normal" in="SourceGraphic" in2="effect1_dropShadow_159_29" result="shape"/>
</filter>
</defs>
</svg>
